<!DOCTYPE svg PUBLIC "-//W3C//DTD SVG 1.1//EN"
 "http://www.w3.org/Graphics/SVG/1.1/DTD/svg11.dtd">
<svg width="900px" height="919px" version="1.1"
 viewbox="0 0 900 919"
 xmlns="http://www.w3.org/2000/svg" shape-rendering="crispEdges"
 stroke-width="1" text-rendering="geometricPrecision">
<text x="75" y="15" textLength="26" font-family="Helvetica" font-size="12" fill="black" text-anchor="middle">

Brick
</text>
<text x="225" y="15" textLength="48" font-family="Helvetica" font-size="12" fill="black" text-anchor="middle">

LocalLog
</text>
<text x="375" y="15" textLength="75" font-family="Helvetica" font-size="12" fill="black" text-anchor="middle">

LocalLogSync
</text>
<text x="525" y="15" textLength="68" font-family="Helvetica" font-size="12" fill="black" text-anchor="middle">

CommonLog
</text>
<text x="675" y="15" textLength="95" font-family="Helvetica" font-size="12" fill="black" text-anchor="middle">

CommonLogSync
</text>
<text x="825" y="15" textLength="49" font-family="Helvetica" font-size="12" fill="black" text-anchor="middle">

HelpProc
</text>
<line x1="75" y1="22" x2="75" y2="47" stroke="black"/>
<line x1="225" y1="22" x2="225" y2="47" stroke="black"/>
<line x1="375" y1="22" x2="375" y2="47" stroke="black"/>
<line x1="525" y1="22" x2="525" y2="47" stroke="black"/>
<line x1="675" y1="22" x2="675" y2="47" stroke="black"/>
<line x1="825" y1="22" x2="825" y2="47" stroke="black"/>
<text x="295" y="37" textLength="308" font-family="Helvetica" font-size="12" fill="black">
Write a bigdata_dir key (data on disk) hunk synchronously
</text>
<line x1="37" y1="34" x2="294" y2="34" stroke="black" stroke-dasharray="2,2"/>
<line x1="606" y1="34" x2="863" y2="34" stroke="black" stroke-dasharray="2,2"/>
<line x1="75" y1="47" x2="75" y2="94" stroke="black"/>
<line x1="225" y1="47" x2="225" y2="94" stroke="black"/>
<line x1="375" y1="47" x2="375" y2="94" stroke="black"/>
<line x1="525" y1="47" x2="525" y2="94" stroke="black"/>
<line x1="675" y1="47" x2="675" y2="94" stroke="black"/>
<line x1="825" y1="47" x2="825" y2="94" stroke="black"/>
<path d="M 74 75 A75,6 0 0,1 75,64" stroke="black" fill="none"/><polygon fill="black" points="75,76 65,82 65,70"/>
<text x="76" y="57" textLength="168" font-family="Helvetica" font-size="12" fill="black">
Incr. chain serial number: Serial
</text>
<text x="76" y="67" textLength="86" font-family="Helvetica" font-size="12" fill="black">
Checksum hunk
</text>
<text x="76" y="77" textLength="115" font-family="Helvetica" font-size="12" fill="black">
Format hunk -&gt; Bytes
</text>
<line x1="75" y1="94" x2="75" y2="119" stroke="black"/>
<line x1="225" y1="94" x2="225" y2="119" stroke="black"/>
<line x1="375" y1="94" x2="375" y2="119" stroke="black"/>
<line x1="525" y1="94" x2="525" y2="119" stroke="black"/>
<line x1="675" y1="94" x2="675" y2="119" stroke="black"/>
<line x1="825" y1="94" x2="825" y2="119" stroke="black"/>
<polygon fill="white" points="8,94 142,94 142,117 8,117"/>
<line x1="8" y1="94" x2="142" y2="94" stroke="black"/>
<line x1="8" y1="117" x2="142" y2="117" stroke="black"/>
<line x1="8" y1="94" x2="8" y2="117" stroke="black"/>
<line x1="142" y1="94" x2="142" y2="117" stroke="black"/>
<text x="35" y="109" textLength="79" font-family="Helvetica" font-size="12" fill="black">
Value blob first
</text>
<line x1="75" y1="119" x2="75" y2="144" stroke="black"/>
<line x1="225" y1="119" x2="225" y2="144" stroke="black"/>
<line x1="375" y1="119" x2="375" y2="144" stroke="black"/>
<line x1="525" y1="119" x2="525" y2="144" stroke="black"/>
<line x1="675" y1="119" x2="675" y2="144" stroke="black"/>
<line x1="825" y1="119" x2="825" y2="144" stroke="black"/>
<line x1="75" y1="131" x2="225" y2="131" stroke="black"/>
<polygon fill="black" points="225,131 215,137 215,125"/>
<text x="4294967295" y="129" textLength="367" font-family="Helvetica" font-size="12" fill="black">
write_hunk(LocalLog,BrName,bigblob,Key,TypeNum,CBlobs,UBlobs)
</text>
<line x1="75" y1="144" x2="75" y2="169" stroke="black"/>
<line x1="225" y1="144" x2="225" y2="169" stroke="black"/>
<line x1="375" y1="144" x2="375" y2="169" stroke="black"/>
<line x1="525" y1="144" x2="525" y2="169" stroke="black"/>
<line x1="675" y1="144" x2="675" y2="169" stroke="black"/>
<line x1="825" y1="144" x2="825" y2="169" stroke="black"/>
<line x1="225" y1="156" x2="525" y2="156" stroke="black"/>
<polygon fill="black" points="525,156 515,162 515,150"/>
<text x="229" y="154" textLength="291" font-family="Helvetica" font-size="12" fill="black">
{write_hunk,BrName,bigblob,Key,TypeNum,Len,Bytes}
</text>
<line x1="75" y1="169" x2="75" y2="194" stroke="black"/>
<line x1="225" y1="169" x2="225" y2="194" stroke="black"/>
<line x1="375" y1="169" x2="375" y2="194" stroke="black"/>
<line x1="525" y1="169" x2="525" y2="194" stroke="black"/>
<line x1="675" y1="169" x2="675" y2="194" stroke="black"/>
<line x1="825" y1="169" x2="825" y2="194" stroke="black"/>
<path d="M 525 175 A75,6 0 0,1 524,186" stroke="black" fill="none"/><polygon fill="black" points="525,187 535,193 535,181"/>
<text x="302" y="179" textLength="220" font-family="Helvetica" font-size="12" fill="black">
Write to shortterm storage with checksum
</text>
<line x1="75" y1="194" x2="75" y2="219" stroke="black"/>
<line x1="225" y1="194" x2="225" y2="219" stroke="black"/>
<line x1="375" y1="194" x2="375" y2="219" stroke="black"/>
<line x1="525" y1="194" x2="525" y2="219" stroke="black"/>
<line x1="675" y1="194" x2="675" y2="219" stroke="black"/>
<line x1="825" y1="194" x2="825" y2="219" stroke="black"/>
<line x1="525" y1="206" x2="225" y2="206" stroke="black" stroke-dasharray="2,2"/>
<polygon fill="black" points="225,206 235,212 235,200"/>
<text x="306" y="204" textLength="136" font-family="Helvetica" font-size="12" fill="black">
{ok,C_SeqNum,C_Offset}
</text>
<line x1="75" y1="219" x2="75" y2="244" stroke="black"/>
<line x1="225" y1="219" x2="225" y2="244" stroke="black"/>
<line x1="375" y1="219" x2="375" y2="244" stroke="black"/>
<line x1="525" y1="219" x2="525" y2="244" stroke="black"/>
<line x1="675" y1="219" x2="675" y2="244" stroke="black"/>
<line x1="825" y1="219" x2="825" y2="244" stroke="black"/>
<line x1="225" y1="231" x2="75" y2="231" stroke="black" stroke-dasharray="2,2"/>
<polygon fill="black" points="75,231 85,237 85,225"/>
<text x="81" y="229" textLength="136" font-family="Helvetica" font-size="12" fill="black">
{ok,C_SeqNum,C_Offset}
</text>
<line x1="75" y1="244" x2="75" y2="269" stroke="black"/>
<line x1="225" y1="244" x2="225" y2="269" stroke="black"/>
<line x1="375" y1="244" x2="375" y2="269" stroke="black"/>
<line x1="525" y1="244" x2="525" y2="269" stroke="black"/>
<line x1="675" y1="244" x2="675" y2="269" stroke="black"/>
<line x1="825" y1="244" x2="825" y2="269" stroke="black"/>
<path d="M 224 261 A75,6 0 0,1 225,250" stroke="black" fill="none"/><polygon fill="black" points="225,262 215,268 215,256"/>
<text x="226" y="254" textLength="226" font-family="Helvetica" font-size="12" fill="black">
Increment local offset and maybe seq num
</text>
<line x1="75" y1="269" x2="75" y2="294" stroke="black"/>
<line x1="225" y1="269" x2="225" y2="294" stroke="black"/>
<line x1="375" y1="269" x2="375" y2="294" stroke="black"/>
<line x1="525" y1="269" x2="525" y2="294" stroke="black"/>
<line x1="675" y1="269" x2="675" y2="294" stroke="black"/>
<line x1="825" y1="269" x2="825" y2="294" stroke="black"/>
<polygon fill="white" points="8,269 142,269 142,292 8,292"/>
<line x1="8" y1="269" x2="142" y2="269" stroke="black"/>
<line x1="8" y1="292" x2="142" y2="292" stroke="black"/>
<line x1="8" y1="269" x2="8" y2="292" stroke="black"/>
<line x1="142" y1="269" x2="142" y2="292" stroke="black"/>
<text x="16" y="284" textLength="116" font-family="Helvetica" font-size="12" fill="black">
Key metadata second
</text>
<line x1="75" y1="294" x2="75" y2="319" stroke="black"/>
<line x1="225" y1="294" x2="225" y2="319" stroke="black"/>
<line x1="375" y1="294" x2="375" y2="319" stroke="black"/>
<line x1="525" y1="294" x2="525" y2="319" stroke="black"/>
<line x1="675" y1="294" x2="675" y2="319" stroke="black"/>
<line x1="825" y1="294" x2="825" y2="319" stroke="black"/>
<line x1="75" y1="306" x2="225" y2="306" stroke="black"/>
<polygon fill="black" points="225,306 215,312 215,300"/>
<text x="4294967295" y="304" textLength="378" font-family="Helvetica" font-size="12" fill="black">
write_hunk(LocalLog,BrName,metadata,Key,TypeNum,CBlobs,UBlobs)
</text>
<line x1="75" y1="319" x2="75" y2="344" stroke="black"/>
<line x1="225" y1="319" x2="225" y2="344" stroke="black"/>
<line x1="375" y1="319" x2="375" y2="344" stroke="black"/>
<line x1="525" y1="319" x2="525" y2="344" stroke="black"/>
<line x1="675" y1="319" x2="675" y2="344" stroke="black"/>
<line x1="825" y1="319" x2="825" y2="344" stroke="black"/>
<path d="M 224 336 A75,6 0 0,1 225,325" stroke="black" fill="none"/><polygon fill="black" points="225,337 215,343 215,331"/>
<text x="226" y="329" textLength="156" font-family="Helvetica" font-size="12" fill="black">
Get current SeqNum &amp; Offset
</text>
<line x1="75" y1="344" x2="75" y2="369" stroke="black"/>
<line x1="225" y1="344" x2="225" y2="369" stroke="black"/>
<line x1="375" y1="344" x2="375" y2="369" stroke="black"/>
<line x1="525" y1="344" x2="525" y2="369" stroke="black"/>
<line x1="675" y1="344" x2="675" y2="369" stroke="black"/>
<line x1="825" y1="344" x2="825" y2="369" stroke="black"/>
<line x1="225" y1="356" x2="525" y2="356" stroke="black"/>
<polygon fill="black" points="525,356 515,362 515,350"/>
<text x="223" y="354" textLength="302" font-family="Helvetica" font-size="12" fill="black">
{write_hunk,BrName,metadata,Key,TypeNum,Len,Bytes}
</text>
<line x1="75" y1="369" x2="75" y2="394" stroke="black"/>
<line x1="225" y1="369" x2="225" y2="394" stroke="black"/>
<line x1="375" y1="369" x2="375" y2="394" stroke="black"/>
<line x1="525" y1="369" x2="525" y2="394" stroke="black"/>
<line x1="675" y1="369" x2="675" y2="394" stroke="black"/>
<line x1="825" y1="369" x2="825" y2="394" stroke="black"/>
<path d="M 525 375 A75,6 0 0,1 524,386" stroke="black" fill="none"/><polygon fill="black" points="525,387 535,393 535,381"/>
<text x="198" y="379" textLength="324" font-family="Helvetica" font-size="12" fill="black">
Write to shortterm storage, using *un*checksummed wrapper
</text>
<text x="327" y="389" textLength="195" font-family="Helvetica" font-size="12" fill="black">
Contents are already checksummed!
</text>
<line x1="75" y1="394" x2="75" y2="419" stroke="black"/>
<line x1="225" y1="394" x2="225" y2="419" stroke="black"/>
<line x1="375" y1="394" x2="375" y2="419" stroke="black"/>
<line x1="525" y1="394" x2="525" y2="419" stroke="black"/>
<line x1="675" y1="394" x2="675" y2="419" stroke="black"/>
<line x1="825" y1="394" x2="825" y2="419" stroke="black"/>
<line x1="525" y1="406" x2="225" y2="406" stroke="black" stroke-dasharray="2,2"/>
<polygon fill="black" points="225,406 235,412 235,400"/>
<text x="306" y="404" textLength="136" font-family="Helvetica" font-size="12" fill="black">
{ok,C_SeqNum,C_Offset}
</text>
<line x1="75" y1="419" x2="75" y2="444" stroke="black"/>
<line x1="225" y1="419" x2="225" y2="444" stroke="black"/>
<line x1="375" y1="419" x2="375" y2="444" stroke="black"/>
<line x1="525" y1="419" x2="525" y2="444" stroke="black"/>
<line x1="675" y1="419" x2="675" y2="444" stroke="black"/>
<line x1="825" y1="419" x2="825" y2="444" stroke="black"/>
<path d="M 224 436 A75,6 0 0,1 225,425" stroke="black" fill="none"/><polygon fill="black" points="225,437 215,443 215,431"/>
<text x="226" y="429" textLength="185" font-family="Helvetica" font-size="12" fill="black">
Ignore common's seq num &amp; offset
</text>
<text x="226" y="439" textLength="226" font-family="Helvetica" font-size="12" fill="black">
Increment local offset and maybe seq num
</text>
<line x1="75" y1="444" x2="75" y2="469" stroke="black"/>
<line x1="225" y1="444" x2="225" y2="469" stroke="black"/>
<line x1="375" y1="444" x2="375" y2="469" stroke="black"/>
<line x1="525" y1="444" x2="525" y2="469" stroke="black"/>
<line x1="675" y1="444" x2="675" y2="469" stroke="black"/>
<line x1="825" y1="444" x2="825" y2="469" stroke="black"/>
<line x1="225" y1="456" x2="75" y2="456" stroke="black" stroke-dasharray="2,2"/>
<polygon fill="black" points="75,456 85,462 85,450"/>
<text x="96" y="454" textLength="106" font-family="Helvetica" font-size="12" fill="black">
{ok,SeqNum,Offset}
</text>
<line x1="75" y1="469" x2="75" y2="494" stroke="black"/>
<line x1="225" y1="469" x2="225" y2="494" stroke="black"/>
<line x1="375" y1="469" x2="375" y2="494" stroke="black"/>
<line x1="525" y1="469" x2="525" y2="494" stroke="black"/>
<line x1="675" y1="469" x2="675" y2="494" stroke="black"/>
<line x1="825" y1="469" x2="825" y2="494" stroke="black"/>
<path d="M 224 486 A75,6 0 0,1 225,475" stroke="black" fill="none"/><polygon fill="black" points="225,487 215,493 215,481"/>
<text x="226" y="479" textLength="226" font-family="Helvetica" font-size="12" fill="black">
Increment local offset and maybe seq num
</text>
<line x1="75" y1="494" x2="75" y2="519" stroke="black"/>
<line x1="225" y1="494" x2="225" y2="519" stroke="black"/>
<line x1="375" y1="494" x2="375" y2="519" stroke="black"/>
<line x1="525" y1="494" x2="525" y2="519" stroke="black"/>
<line x1="675" y1="494" x2="675" y2="519" stroke="black"/>
<line x1="825" y1="494" x2="825" y2="519" stroke="black"/>
<path d="M 74 511 A75,6 0 0,1 75,500" stroke="black" fill="none"/><polygon fill="black" points="75,512 65,518 65,506"/>
<text x="76" y="504" textLength="216" font-family="Helvetica" font-size="12" fill="black">
Add Serial+Mods to #state.logging_op_q
</text>
<line x1="75" y1="519" x2="75" y2="544" stroke="black"/>
<line x1="225" y1="519" x2="225" y2="544" stroke="black"/>
<line x1="375" y1="519" x2="375" y2="544" stroke="black"/>
<line x1="525" y1="519" x2="525" y2="544" stroke="black"/>
<line x1="675" y1="519" x2="675" y2="544" stroke="black"/>
<line x1="825" y1="519" x2="825" y2="544" stroke="black"/>
<line x1="75" y1="531" x2="375" y2="531" stroke="black"/>
<line x1="375" y1="531" x2="365" y2="537" stroke="black"/>
<text x="176" y="529" textLength="96" font-family="Helvetica" font-size="12" fill="black">
{sync_msg,Serial}
</text>
<line x1="75" y1="544" x2="75" y2="569" stroke="black"/>
<line x1="225" y1="544" x2="225" y2="569" stroke="black"/>
<line x1="375" y1="544" x2="375" y2="569" stroke="black"/>
<line x1="525" y1="544" x2="525" y2="569" stroke="black"/>
<line x1="675" y1="544" x2="675" y2="569" stroke="black"/>
<line x1="825" y1="544" x2="825" y2="569" stroke="black"/>
<polygon fill="white" points="8,544 292,544 292,567 8,567"/>
<line x1="8" y1="544" x2="292" y2="544" stroke="black"/>
<line x1="8" y1="567" x2="292" y2="567" stroke="black"/>
<line x1="8" y1="544" x2="8" y2="567" stroke="black"/>
<line x1="292" y1="544" x2="292" y2="567" stroke="black"/>
<text x="5" y="559" textLength="288" font-family="Helvetica" font-size="12" fill="black">
Maybe process more Mods requests...goto top of flow.
</text>
<line x1="75" y1="569" x2="75" y2="594" stroke="black"/>
<line x1="225" y1="569" x2="225" y2="594" stroke="black"/>
<line x1="375" y1="569" x2="375" y2="594" stroke="black"/>
<line x1="525" y1="569" x2="525" y2="594" stroke="black"/>
<line x1="675" y1="569" x2="675" y2="594" stroke="black"/>
<line x1="825" y1="569" x2="825" y2="594" stroke="black"/>
<path d="M 374 586 A75,6 0 0,1 375,575" stroke="black" fill="none"/><polygon fill="black" points="375,587 365,593 365,581"/>
<text x="376" y="579" textLength="176" font-family="Helvetica" font-size="12" fill="black">
Collect more {sync_msg,Serial}...
</text>
<line x1="75" y1="594" x2="75" y2="619" stroke="black"/>
<line x1="225" y1="594" x2="225" y2="619" stroke="black"/>
<line x1="375" y1="594" x2="375" y2="619" stroke="black"/>
<line x1="525" y1="594" x2="525" y2="619" stroke="black"/>
<line x1="675" y1="594" x2="675" y2="619" stroke="black"/>
<line x1="825" y1="594" x2="825" y2="619" stroke="black"/>
<line x1="375" y1="606" x2="525" y2="606" stroke="black"/>
<line x1="525" y1="606" x2="515" y2="612" stroke="black"/>
<text x="369" y="604" textLength="160" font-family="Helvetica" font-size="12" fill="black">
{sync_please,MyName,Serial}
</text>
<line x1="75" y1="619" x2="75" y2="644" stroke="black"/>
<line x1="225" y1="619" x2="225" y2="644" stroke="black"/>
<line x1="375" y1="619" x2="375" y2="644" stroke="black"/>
<line x1="525" y1="619" x2="525" y2="644" stroke="black"/>
<line x1="675" y1="619" x2="675" y2="644" stroke="black"/>
<line x1="825" y1="619" x2="825" y2="644" stroke="black"/>
<path d="M 525 625 A75,6 0 0,1 524,636" stroke="black" fill="none"/><polygon fill="black" points="525,637 535,643 535,631"/>
<text x="301" y="629" textLength="221" font-family="Helvetica" font-size="12" fill="black">
Update sync request list from local bricks.
</text>
<line x1="75" y1="644" x2="75" y2="669" stroke="black"/>
<line x1="225" y1="644" x2="225" y2="669" stroke="black"/>
<line x1="375" y1="644" x2="375" y2="669" stroke="black"/>
<line x1="525" y1="644" x2="525" y2="669" stroke="black"/>
<line x1="675" y1="644" x2="675" y2="669" stroke="black"/>
<line x1="825" y1="644" x2="825" y2="669" stroke="black"/>
<line x1="525" y1="656" x2="675" y2="656" stroke="black"/>
<line x1="675" y1="656" x2="665" y2="662" stroke="black"/>
<text x="499" y="654" textLength="200" font-family="Helvetica" font-size="12" fill="black">
Forward {sync_please,_,_}, I guess??
</text>
<line x1="75" y1="669" x2="75" y2="694" stroke="black"/>
<line x1="225" y1="669" x2="225" y2="694" stroke="black"/>
<line x1="375" y1="669" x2="375" y2="694" stroke="black"/>
<line x1="525" y1="669" x2="525" y2="694" stroke="black"/>
<line x1="675" y1="669" x2="675" y2="694" stroke="black"/>
<line x1="825" y1="669" x2="825" y2="694" stroke="black"/>
<path d="M 675 675 A75,6 0 0,1 674,686" stroke="black" fill="none"/><polygon fill="black" points="675,687 685,693 685,681"/>
<text x="497" y="679" textLength="175" font-family="Helvetica" font-size="12" fill="black">
Collect more {sync_please,_,_}...
</text>
<line x1="75" y1="694" x2="75" y2="719" stroke="black"/>
<line x1="225" y1="694" x2="225" y2="719" stroke="black"/>
<line x1="375" y1="694" x2="375" y2="719" stroke="black"/>
<line x1="525" y1="694" x2="525" y2="719" stroke="black"/>
<line x1="675" y1="694" x2="675" y2="719" stroke="black"/>
<line x1="825" y1="694" x2="825" y2="719" stroke="black"/>
<line x1="675" y1="706" x2="825" y2="706" stroke="black"/>
<line x1="825" y1="706" x2="815" y2="712" stroke="black"/>
<text x="726" y="704" textLength="46" font-family="Helvetica" font-size="12" fill="black">
Spawn...
</text>
<line x1="75" y1="719" x2="75" y2="744" stroke="black"/>
<line x1="225" y1="719" x2="225" y2="744" stroke="black"/>
<line x1="375" y1="719" x2="375" y2="744" stroke="black"/>
<line x1="525" y1="719" x2="525" y2="744" stroke="black"/>
<line x1="675" y1="719" x2="675" y2="744" stroke="black"/>
<line x1="825" y1="719" x2="825" y2="744" stroke="black"/>
<path d="M 825 725 A75,6 0 0,1 824,736" stroke="black" fill="none"/><polygon fill="black" points="825,737 835,743 835,731"/>
<text x="720" y="729" textLength="102" font-family="Helvetica" font-size="12" fill="black">
Open shortterm file
</text>
<line x1="75" y1="744" x2="75" y2="769" stroke="black"/>
<line x1="225" y1="744" x2="225" y2="769" stroke="black"/>
<line x1="375" y1="744" x2="375" y2="769" stroke="black"/>
<line x1="525" y1="744" x2="525" y2="769" stroke="black"/>
<line x1="675" y1="744" x2="675" y2="769" stroke="black"/>
<line x1="825" y1="744" x2="825" y2="769" stroke="black"/>
<path d="M 825 750 A75,6 0 0,1 824,761" stroke="black" fill="none"/><polygon fill="black" points="825,762 835,768 835,756"/>
<text x="771" y="754" textLength="51" font-family="Helvetica" font-size="12" fill="black">
file:sync()
</text>
<line x1="75" y1="769" x2="75" y2="794" stroke="black"/>
<line x1="225" y1="769" x2="225" y2="794" stroke="black"/>
<line x1="375" y1="769" x2="375" y2="794" stroke="black"/>
<line x1="525" y1="769" x2="525" y2="794" stroke="black"/>
<line x1="675" y1="769" x2="675" y2="794" stroke="black"/>
<line x1="825" y1="769" x2="825" y2="794" stroke="black"/>
<line x1="825" y1="781" x2="525" y2="781" stroke="black"/>
<line x1="525" y1="781" x2="535" y2="787" stroke="black"/>
<text x="609" y="779" textLength="130" font-family="Helvetica" font-size="12" fill="black">
{sync_done,StuffMaybe}
</text>
<line x1="75" y1="794" x2="75" y2="819" stroke="black"/>
<line x1="225" y1="794" x2="225" y2="819" stroke="black"/>
<line x1="375" y1="794" x2="375" y2="819" stroke="black"/>
<line x1="525" y1="794" x2="525" y2="819" stroke="black"/>
<line x1="675" y1="794" x2="675" y2="819" stroke="black"/>
<line x1="825" y1="794" x2="825" y2="819" stroke="black"/>
<path d="M 825 800 A75,6 0 0,1 824,811" stroke="black" fill="none"/><polygon fill="black" points="825,812 835,818 835,806"/>
<text x="796" y="804" textLength="26" font-family="Helvetica" font-size="12" fill="black">
exit()
</text>
<line x1="75" y1="819" x2="75" y2="844" stroke="black"/>
<line x1="225" y1="819" x2="225" y2="844" stroke="black"/>
<line x1="375" y1="819" x2="375" y2="844" stroke="black"/>
<line x1="525" y1="819" x2="525" y2="844" stroke="black"/>
<line x1="675" y1="819" x2="675" y2="844" stroke="black"/>
<line x1="825" y1="819" x2="825" y2="844" stroke="black"/>
<path d="M 525 825 A75,6 0 0,1 524,836" stroke="black" fill="none"/><polygon fill="black" points="525,837 535,843 535,831"/>
<text x="397" y="829" textLength="125" font-family="Helvetica" font-size="12" fill="black">
Foreach sync request...
</text>
<line x1="75" y1="844" x2="75" y2="869" stroke="black"/>
<line x1="225" y1="844" x2="225" y2="869" stroke="black"/>
<line x1="375" y1="844" x2="375" y2="869" stroke="black"/>
<line x1="525" y1="844" x2="525" y2="869" stroke="black"/>
<line x1="675" y1="844" x2="675" y2="869" stroke="black"/>
<line x1="825" y1="844" x2="825" y2="869" stroke="black"/>
<line x1="525" y1="856" x2="375" y2="856" stroke="black"/>
<line x1="375" y1="856" x2="385" y2="862" stroke="black"/>
<text x="375" y="854" textLength="148" font-family="Helvetica" font-size="12" fill="black">
{sync_done,YourLastSerial}
</text>
<line x1="75" y1="869" x2="75" y2="894" stroke="black"/>
<line x1="225" y1="869" x2="225" y2="894" stroke="black"/>
<line x1="375" y1="869" x2="375" y2="894" stroke="black"/>
<line x1="525" y1="869" x2="525" y2="894" stroke="black"/>
<line x1="675" y1="869" x2="675" y2="894" stroke="black"/>
<line x1="825" y1="869" x2="825" y2="894" stroke="black"/>
<line x1="375" y1="881" x2="75" y2="881" stroke="black"/>
<line x1="75" y1="881" x2="85" y2="887" stroke="black"/>
<text x="163" y="879" textLength="122" font-family="Helvetica" font-size="12" fill="black">
{sync_done,LastSerial}
</text>
<line x1="75" y1="894" x2="75" y2="919" stroke="black"/>
<line x1="225" y1="894" x2="225" y2="919" stroke="black"/>
<line x1="375" y1="894" x2="375" y2="919" stroke="black"/>
<line x1="525" y1="894" x2="525" y2="919" stroke="black"/>
<line x1="675" y1="894" x2="675" y2="919" stroke="black"/>
<line x1="825" y1="894" x2="825" y2="919" stroke="black"/>
<path d="M 74 911 A75,6 0 0,1 75,900" stroke="black" fill="none"/><polygon fill="black" points="75,912 65,918 65,906"/>
<text x="76" y="904" textLength="599" font-family="Helvetica" font-size="12" fill="black">
For all Mods in #state.logging_op_q such that #log_q.logging_serial =&lt; LastSerial, send Mods downstream, etc...
</text>
</svg>
